<?xml version="1.0" encoding="UTF-8" standalone="no"?>
<!DOCTYPE svg PUBLIC "-//W3C//DTD SVG 1.1//EN" "http://www.w3.org/Graphics/SVG/1.1/DTD/svg11.dtd">
<svg width="1680.00" height="1050.00" viewBox="0.00 0.00 1680.00 1050.00" xmlns="http://www.w3.org/2000/svg" xmlns:xlink="http://www.w3.org/1999/xlink">
<g stroke-linecap="round" id="Layer_1">
<path d="M788.60,291.17 C788.60,291.17 788.60,279.82 788.60,279.82 C788.35,300.89 790.58,354.47 791.68,380.29 C793.19,414.16 796.53,484.67 798.36,521.31 C800.48,558.77 804.87,632.50 807.15,668.76 C809.68,705.77 814.85,778.76 817.48,814.75 C819.51,842.39 822.70,885.73 823.85,901.43 C822.51,890.96 819.13,864.28 816.87,843.96 C814.30,815.68 809.28,757.56 806.83,727.72 C803.91,691.22 798.21,618.06 795.42,581.40 C793.19,549.16 788.84,480.75 786.72,444.59 C785.81,423.71 784.49,385.90 784.07,368.97 C783.99,355.32 783.88,330.27 783.86,318.86 C783.93,292.87 785.86,266.92 785.93,265.91 C789.26,263.53 792.08,261.94 795.39,260.88 C804.23,258.12 839.17,251.29 853.21,249.77 C861.05,249.06 877.17,247.79 885.45,247.40 C894.72,247.15 908.23,247.35 915.56,247.64 C930.42,248.51 954.62,251.53 976.03,255.54 C983.71,257.17 998.77,260.56 1006.15,262.31 C1013.76,264.38 1028.65,268.79 1035.93,271.12 C1043.09,273.61 1059.90,280.25 1064.19,282.29 C1071.39,285.80 1085.59,293.64 1092.40,297.86 C1098.95,302.07 1110.61,310.43 1116.98,316.25 C1122.59,321.40 1132.22,332.21 1136.50,338.09 C1140.48,343.59 1147.85,358.57 1150.21,365.92 C1151.33,369.44 1153.17,377.10 1153.62,380.94 C1154.51,388.82 1154.13,404.49 1152.88,412.35 C1151.78,419.11 1146.60,434.05 1142.90,441.80 C1139.04,449.83 1131.26,461.59 1126.48,467.52 C1121.63,473.40 1114.18,482.02 1107.50,488.71 C1100.56,495.39 1091.43,502.96 1082.59,509.06 C1077.33,512.67 1043.15,533.52 1028.30,541.90 C1013.59,549.81 985.23,562.87 970.62,568.56 C952.26,575.30 927.59,582.72 912.24,586.20 C905.17,587.71 891.49,590.30 883.70,591.35 C869.39,593.17 831.54,593.31 822.71,592.61 C821.36,592.51 820.63,592.54 820.51,592.72 C819.92,593.69 820.65,596.20 821.19,596.12" fill="none" stroke="rgb(255, 255, 255)" stroke-width="83.80" stroke-opacity="1.00" stroke-linejoin="round"/>
<path d="M533.34,344.52 C532.32,344.39 529.46,343.91 528.57,344.17 C524.26,345.48 515.59,354.99 506.95,364.81 C507.89,365.70 510.30,368.07 510.59,368.33 C512.21,369.74 514.90,371.24 516.94,371.83 C519.81,372.60 527.64,372.27 531.12,371.26 C532.83,370.73 536.08,369.05 537.36,367.97 C538.89,366.64 542.02,362.06 542.80,360.98 C542.75,355.12 542.24,350.29 540.68,347.34 C539.24,344.73 534.89,340.18 532.36,338.69 C529.97,337.33 523.65,335.34 520.17,335.34 C517.90,335.38 514.76,336.47 513.06,337.82 C512.04,338.68 509.36,342.45 508.56,344.00 C507.47,346.19 506.69,349.83 506.84,351.91 C506.98,353.38 508.24,356.71 509.13,358.18 C511.23,361.51 517.53,366.40 521.28,368.14 C525.70,370.13 538.41,373.67 540.82,374.34 C540.82,374.34 541.03,375.11 541.03,375.11" fill="none" stroke="rgb(255, 255, 255)" stroke-width="83.80" stroke-opacity="1.00" stroke-linejoin="round"/>
<path d="M518.56,861.50 C518.40,859.73 516.86,857.87 514.68,857.43 C513.76,857.25 508.27,858.54 507.05,858.93 C504.51,859.78 502.37,861.24 502.39,862.11 C502.57,863.30 510.22,865.97 514.81,866.67 C519.04,867.27 526.61,866.69 530.21,865.50 C533.72,864.30 539.51,860.59 541.91,857.97 C543.67,856.00 547.98,849.72 549.24,846.80 C550.34,844.21 551.71,837.88 551.52,834.47 C551.25,830.50 549.08,825.15 546.65,822.36 C544.61,820.09 539.53,817.14 537.23,816.67 C535.50,816.34 528.83,816.75 526.46,817.21 C524.78,817.57 522.76,818.54 521.31,819.76 C520.58,820.39 517.21,824.28 516.47,825.33 C515.05,827.45 514.03,830.85 514.10,833.17 C514.24,835.74 517.20,841.70 520.13,845.77 C522.76,849.38 527.64,855.14 530.63,858.07 C537.50,864.75 544.44,868.34 549.85,870.61" fill="none" stroke="rgb(255, 255, 255)" stroke-width="83.80" stroke-opacity="1.00" stroke-linejoin="round"/>
</g>
</svg>
